PathFileType	4	(X/Y/Z)	C:/Users/opensim2020/Desktop/walking_exp_matlab/subject01_walking11_straight_02.trc																																																																																																																																		
DataRate	CameraRate	NumFrames	NumMarkers	Units	OrigDataRate	OrigDataStartFrame	OrigNumFrames																																																																																																																														
100	100	4	44	mm	100	2107	266																																																																																																																														
Frame#	Time	LFHD			RFHD			LBHD			RBHD			C7			T10			CLAV			STRN			RBAK			LSHO			LUPA			LELB			LFRM			LWRA			LWRB			LFIN			RSHO			RUPA			RELB			RFRM			RWRA			RWRB			RFIN			LASI			RASI			LPSI			RPSI			LTHI			LKNE			LTIB			LANK			LHEE			LTOE			RTHI			RKNE			RTIB			RANK			RHEE			RTOE			*39			*40			*41			*42			*43		
		X1	Y1	Z1	X2	Y2	Z2	X3	Y3	Z3	X4	Y4	Z4	X5	Y5	Z5	X6	Y6	Z6	X7	Y7	Z7	X8	Y8	Z8	X9	Y9	Z9	X10	Y10	Z10	X11	Y11	Z11	X12	Y12	Z12	X13	Y13	Z13	X14	Y14	Z14	X15	Y15	Z15	X16	Y16	Z16	X17	Y17	Z17	X18	Y18	Z18	X19	Y19	Z19	X20	Y20	Z20	X21	Y21	Z21	X22	Y22	Z22	X23	Y23	Z23	X24	Y24	Z24	X25	Y25	Z25	X26	Y26	Z26	X27	Y27	Z27	X28	Y28	Z28	X29	Y29	Z29	X30	Y30	Z30	X31	Y31	Z31	X32	Y32	Z32	X33	Y33	Z33	X34	Y34	Z34	X35	Y35	Z35	X36	Y36	Z36	X37	Y37	Z37	X38	Y38	Z38	X39	Y39	Z39	X40	Y40	Z40	X41	Y41	Z41	X42	Y42	Z42	X43	Y43	Z43	X44	Y44	Z44
																																																																																																																																					
167	1.66	291.4563	1652.53052	1004.14905	331.77377	1650.15503	1111.57874	174.27655	1625.16858	1040.70325	214.29141	1622.59106	1154.40247	123.186	1421.21143	1064.88672	88.47024	1125.90479	1060.06018	266.37918	1352.76038	1060.93152	310.35483	1198.81665	1048.29883	67.7151	1220.46631	1131.11694	203.99077	1392.19666	901.40149	179.87187	1212.52673	808.02264	182.93466	1059.16919	796.63885	251.05838	968.78729	763.29303	364.58908	888.30444	768.68817	313.55569	864.46191	749.37976	381.40094	818.99823	728.9118	199.03328	1375.01892	1212.97961	126.85096	1174.3667	1301.04297	121.14286	1050.46118	1299.59778	134.95769	931.87976	1331.79346	206.93741	808.16107	1321.14075	159.20285	813.25507	1355.04077	187.57912	730.8559	1353.54553	254.64954	915.78015	941.19702	269.9942	926.18585	1156.2843	72.89252	930.67914	1008.3985	84.22646	934.93445	1153.88904	178.7887	583.19568	899.81213	142.93143	450.80402	914.05664	20.86399	304.62244	903.2558	-107.10483	125.89569	949.12207	-163.86662	120.77376	998.65808	5.90893	34.19091	953.7876	292.93839	602.94928	1218.22095	344.62033	455.51028	1187.43176	330.56268	279.53925	1198.98145	345.26447	73.77668	1155.94434	298.65018	32.89738	1107.18665	486.83044	43.37865	1150.04407	320.55182	1686.15442	1092.45288	-1973.19885	1023.46356	3101.87671	-2012.52747	1022.17169	3140.76782	NaN	NaN	NaN	NaN	NaN	NaN
168	1.67	299.38788	1653.20654	1006.26453	339.93732	1650.67004	1113.6449	182.26073	1625.82263	1043.10059	222.46565	1623.29346	1157.03772	131.04594	1421.6803	1066.52771	96.82772	1126.44299	1061.51367	274.48297	1353.53015	1062.8988	318.73328	1199.78699	1049.98376	75.96293	1220.86169	1132.76892	211.98283	1393.07935	903.38617	187.18475	1213.41553	810.07782	189.25798	1060.17603	798.71594	257.01364	969.3681	765.40326	370.01199	888.02625	770.79755	318.47849	864.59515	751.82623	386.30429	818.68518	730.93134	207.01627	1375.48767	1214.85889	135.61198	1174.56848	1302.90186	130.19806	1050.77136	1301.27295	144.14297	932.24133	1333.27612	216.11975	808.51117	1322.40247	168.25862	813.55194	1356.21631	196.72141	730.92853	1354.50012	263.42166	916.3114	942.87146	278.95953	927.2215	1158.04797	82.07458	931.42279	1009.31458	93.04829	935.91962	1154.87268	189.56239	583.55933	900.77435	154.42516	451.00415	914.26483	29.22548	307.44281	903.4917	-102.25761	131.16473	949.05902	-158.54715	128.03229	998.90497	6.40995	34.38412	953.81396	300.72601	602.98785	1219.49219	350.92764	454.79288	1188.63586	335.11691	278.79016	1200.15479	346.44061	73.54877	1156.17419	299.33615	33.40272	1107.56287	487.5593	41.48451	1150.64221	328.50177	1686.50793	1094.50366	-1973.03369	1023.5083	3101.95508	-2012.54004	1022.18939	3140.64063	NaN	NaN	NaN	NaN	NaN	NaN
169	1.68	307.32617	1654.11145	1008.24597	348.06146	1651.26392	1115.68994	190.26805	1626.58899	1045.44189	230.67145	1623.88574	1159.33337	138.86298	1422.30542	1068.46167	105.18645	1127.06323	1062.953	282.44421	1354.46387	1064.80811	327.01807	1200.79895	1051.66309	84.23135	1221.30652	1134.36243	219.87619	1393.96033	905.36218	194.44768	1214.41089	812.01788	195.64864	1061.18726	800.8952	262.92606	969.8064	767.6424	375.19598	887.60376	773.01581	323.6113	864.54974	754.11261	391.08926	818.02179	733.30316	214.9511	1376.23047	1216.81714	144.30176	1174.91431	1304.66467	139.25421	1051.23621	1302.87659	153.35608	932.79065	1334.78564	225.44499	809.06482	1323.72241	177.82124	814.16003	1357.7135	206.06062	731.5528	1355.81836	272.15405	916.94293	944.77026	287.79987	928.16522	1159.96838	91.19925	932.35254	1010.45209	101.90054	936.9566	1156.16711	200.94165	583.8725	901.58838	166.54257	451.23129	914.21368	38.10912	310.54916	903.60516	-96.61178	136.60977	949.0672	-152.0723	135.6293	999.47095	7.05879	34.59756	954.04346	307.79654	602.90778	1220.69482	356.98483	454.22345	1189.6637	339.07397	278.19052	1201.12891	347.34268	73.32066	1156.22888	299.59335	33.48724	1107.47314	488.43695	40.03832	1150.49414	336.68069	1687.26563	1096.70874	-1973.14026	1023.22003	3101.92822	-2012.5343	1022.01727	3140.57153	NaN	NaN	NaN	NaN	NaN	NaN
170	1.69	315.30939	1654.83411	1010.47614	356.1972	1651.87439	1117.66467	198.19798	1627.44055	1047.59216	238.85194	1624.50378	1161.4032	146.76721	1423.15063	1070.7876	113.46005	1127.78247	1064.46948	290.41174	1355.46057	1066.61206	335.23926	1201.87769	1053.21533	92.57241	1221.87695	1136.02527	227.24701	1395.14355	907.24152	201.88744	1215.43958	813.80481	202.2133	1062.14612	803.19739	268.61169	970.2757	769.84094	380.25443	887.09375	775.19556	328.56161	864.3092	756.13611	395.44025	817.43365	735.47595	222.9823	1377.11377	1218.58411	152.94153	1175.5072	1306.45813	148.27231	1051.90918	1304.5874	162.65796	933.43329	1336.26392	234.93327	809.8598	1325.02148	187.26224	814.9325	1359.16943	215.53175	732.02032	1356.89978	281.18124	917.84351	946.73633	296.55716	929.07727	1161.92456	100.14678	933.41675	1011.89899	110.80932	937.94629	1157.68713	212.83018	584.19568	902.24054	179.2856	451.49686	913.96521	47.79666	313.82516	903.68903	-89.86288	142.22726	949.1532	-144.56781	143.73291	1000.12683	7.82639	34.78677	954.44122	314.28433	602.89008	1221.85657	362.79984	453.82849	1190.56653	342.87485	277.90588	1201.84985	348.17319	73.21585	1156.1355	299.83044	33.71535	1107.63281	489.02802	38.9422	1149.44751	344.98004	1687.9408	1098.83252	-1973.07825	1023.50671	3101.90723	-2012.58179	1022.08832	3140.55981	NaN	NaN	NaN	NaN	NaN	NaN
